<mxfile><diagram id="LWYVQPqVzV7g8HnTJ1rW" name="Page-1"><mxGraphModel dx="1006" dy="760" grid="1" gridSize="10" guides="1" tooltips="1" connect="1" arrows="1" fold="1" page="1" pageScale="1" pageWidth="827" pageHeight="1169" math="0" shadow="0"><root><mxCell id="0"/><mxCell id="1" parent="0"/><mxCell id="5" style="edgeStyle=none;html=1;exitX=0.5;exitY=1;exitDx=0;exitDy=0;" parent="1" source="2" target="3" edge="1"><mxGeometry relative="1" as="geometry"/></mxCell><mxCell id="2" value="Start" style="ellipse;whiteSpace=wrap;html=1;" parent="1" vertex="1"><mxGeometry x="160" y="100" width="120" height="80" as="geometry"/></mxCell><mxCell id="11" style="edgeStyle=none;html=1;exitX=0.5;exitY=1;exitDx=0;exitDy=0;entryX=0.5;entryY=0;entryDx=0;entryDy=0;" parent="1" source="3" target="6" edge="1"><mxGeometry relative="1" as="geometry"/></mxCell><mxCell id="3" value="Input 2 numbers" style="shape=parallelogram;perimeter=parallelogramPerimeter;whiteSpace=wrap;html=1;fixedSize=1;" parent="1" vertex="1"><mxGeometry x="155" y="210" width="130" height="60" as="geometry"/></mxCell><mxCell id="12" style="edgeStyle=none;html=1;exitX=0.5;exitY=1;exitDx=0;exitDy=0;" parent="1" source="6" edge="1"><mxGeometry relative="1" as="geometry"><mxPoint x="220" y="400" as="targetPoint"/></mxGeometry></mxCell><mxCell id="6" value="total = first number + second number" style="rounded=0;whiteSpace=wrap;html=1;" parent="1" vertex="1"><mxGeometry x="160" y="310" width="120" height="60" as="geometry"/></mxCell><mxCell id="16" value="" style="edgeStyle=none;html=1;" parent="1" source="9" target="10" edge="1"><mxGeometry relative="1" as="geometry"/></mxCell><mxCell id="9" value="Show total" style="shape=parallelogram;perimeter=parallelogramPerimeter;whiteSpace=wrap;html=1;fixedSize=1;" parent="1" vertex="1"><mxGeometry x="155" y="400" width="130" height="60" as="geometry"/></mxCell><mxCell id="10" value="Stop" style="ellipse;whiteSpace=wrap;html=1;" parent="1" vertex="1"><mxGeometry x="160" y="490" width="120" height="80" as="geometry"/></mxCell></root></mxGraphModel></diagram></mxfile>